<svg xmlns="http://www.w3.org/2000/svg" viewBox="0 0 248.84 63.91"><title>harvey logo</title><path id="logo-icon" d="M40.18,50.47a20.85,20.85,0,0,1-7,.93,60.32,60.32,0,0,1-7-.46c2.09-2.58,7.71-9.2,11.72-10.72a11.4,11.4,0,0,1,4-.83c2.36,0,3.94,1.1,4.43,3.11.77,3.15-1.61,6.27-6.08,8M24,2.53h.16c2.7,0,4.55,2.92,4.71,7.43.15,4.11-3.19,11-4.66,13.79-1.36-2.75-4.38-9.3-4.53-13.41-.17-4.63,1.53-7.7,4.33-7.81M15.79,51.41a20.85,20.85,0,0,1-7-.93c-4.47-1.69-6.85-4.82-6.08-8,.49-2,2.07-3.11,4.43-3.11a11.41,11.41,0,0,1,4,.83c4,1.52,9.64,8.14,11.73,10.72a60.31,60.31,0,0,1-7,.46M10.49,32c-3.6-2.56-5-5.91-3.6-8.53a3.49,3.49,0,0,1,3.24-1.93,8.7,8.7,0,0,1,4.79,1.87c3.22,2.29,6.7,9.43,8,12.3-2.78-.38-9.27-1.47-12.43-3.71m23.19-8.59a8.7,8.7,0,0,1,4.79-1.87,3.49,3.49,0,0,1,3.24,1.93c1.42,2.63,0,6-3.6,8.53-3.16,2.24-9.65,3.33-12.43,3.71,1.31-2.87,4.78-10,8-12.3M47.74,42.14c-.66-2.67-2.86-4.27-5.9-4.27a12.81,12.81,0,0,0-4.5.93c-4.34,1.64-10,8.28-12.24,11V37.34C27.36,37.09,35.15,36,39,33.25c4.27-3,5.86-7.15,4.05-10.5A5,5,0,0,0,38.48,20a10.12,10.12,0,0,0-5.65,2.15c-3,2.14-6.22,7.8-7.74,11.29v-8c.76-1.79,5.53-10.36,5.34-15.53C30.2,3.33,26.92,1,24.2,1H24c-2.82.11-6,2.64-5.77,9.39.2,5.59,5.36,14.79,5.36,15.33v7.74c-1.52-3.49-4.75-9.15-7.77-11.29A10.18,10.18,0,0,0,10.14,20a5,5,0,0,0-4.57,2.73c-1.81,3.35-.2,7.47,4.07,10.5C13.49,36,21.3,37.09,23.57,37.34V49.46c-2.27-3-7.81-9.09-12-10.65a12.92,12.92,0,0,0-4.52-.93c-3,0-5.25,1.6-5.9,4.27-1,3.94,1.79,7.77,7,9.75a22.33,22.33,0,0,0,7.6,1,63.81,63.81,0,0,0,7.77-.54V63.15a.76.76,0,1,0,1.52,0V52.35a55.16,55.16,0,0,0,8.06.58,22.2,22.2,0,0,0,7.58-1c5.23-2,8-5.81,7-9.75" transform="translate(-0.5 -0.5)"/><g id="logo-type"><path class="logo-type-letter" d="M69.8,31H85.41V16.81h5.46V53H85.41V36.1H69.8V53H64.34V16.81H69.8Z" transform="translate(-0.5 -0.5)"/><path class="logo-type-letter" d="M121.28,44.21H105.78l-4,8.79H95.87l17.91-38.46L131.05,53h-6Zm-2.23-5.13-5.37-12.3-5.62,12.3Z" transform="translate(-0.5 -0.5)"/><path class="logo-type-letter" d="M148.31,37.58,159.51,53h-6.68L142.5,38.19h-1V53h-5.46V16.81h6.4q7.17,0,10.36,2.7a9.9,9.9,0,0,1,3.52,7.92,10.28,10.28,0,0,1-2.2,6.61A9.82,9.82,0,0,1,148.31,37.58Zm-6.8-4.15h1.73q7.76,0,7.76-5.93,0-5.55-7.55-5.55h-1.95Z" transform="translate(-0.5 -0.5)"/><path class="logo-type-letter" d="M166,16.81l10,25.08,10.15-25.08h6L175.86,55.72,160,16.81Z" transform="translate(-0.5 -0.5)"/><path class="logo-type-letter" d="M217.05,21.95H202.54v8.7h14.09v5.13H202.54V47.87h14.51V53h-20V16.81h20Z" transform="translate(-0.5 -0.5)"/><path class="logo-type-letter" d="M232,37.37,220.21,16.81h6.28l8.27,14.46,8.3-14.46h6.28L237.48,37.37V53H232Z" transform="translate(-0.5 -0.5)"/></g></svg>